{"title":"Everest.2015.HD-TS.XVID.AC3.HQ.Hive-CM8","uid":12465625,"size":1646508902,"categoryP":"video","categoryS":"movies","magnet":"?xt=urn:btih:f33d8f3e21bfca5c554ce8808e717a5f1b2244d7&amp;dn=Everest.2015.HD-TS.XVID.AC3.HQ.Hive-CM8&amp;tr=udp%3A%2F%2Ftracker.openbittorrent.com%3A80&amp;tr=udp%3A%2F%2Fopen.demonii.com%3A1337&amp;tr=udp%3A%2F%2Ftracker.coppersurfer.tk%3A6969&amp;tr=udp%3A%2F%2Fexodus.desync.com%3A6969","seeders":0,"leechers":0,"uploader":"TvTeam","files":4,"time":1442848797,"description":"------------------------------------------------------------------------\n\n &lt;a href=&quot; https://www.torrenting.com&quot; rel=&quot;nofollow&quot; target=&quot;_NEW&quot;&gt; https://www.torrenting.com&lt;/a&gt;\n\nSign up is OPEN - for time being. Come and have fun.\n\n------------------------------------------------------------------------[center][img]http://img661.imageshack.us/img661/3827/gHX1Jk.jpg[/img]\n\n \n[color=blue][size=4][b]Everest.2015.HD-TS.XVID.AC3.HQ.Hive-CM8[/b][/size][/color]\n\nThx Hive\n\nCM8 Doing It Right The First Time\n\nSources:\n\nVideo: Latino HDCAM\n\nAudio: Sweet Line Big Thx to S4NDM4N\nthx\n\nNotes:\n\nHot day 2 release and first on the net, video and audio is amazing\n\nEncode:\n\nVideo was very good to begin with still fixed ar and perspective,brightness,constrast,rgb and added sharpness\nAudio is very nice direct line, lipsynced to my video\nas far as the rating goes id say Video 8.5/10 and Audio 10/10\n\ngot very nice\nwill do me till retail\nenjoy only in imax or here, lol\n\nVideo: 720x340 @bitrate 1700 2pass\nAudio: English Direct Line 2.0 Stereo\nSample: yes included\n\n &lt;a href=&quot;\nhttp://www.imdb.com/title/tt2719848/&quot; rel=&quot;nofollow&quot; target=&quot;_NEW&quot;&gt;\nhttp://www.imdb.com/title/tt2719848/&lt;/a&gt;\n\n\nGeneral\nComplete name                  : Everest.2015.HD-TS.XVID.AC3.HQ.Hive-CM8.avi\nFormat                         : AVI\nFormat/Info                    : Audio Video Interleave\nFile size                      : 1.51 GiB\nDuration                       : 1h 49mn\nOverall bit rate               : 1 980 Kbps\nWriting application            : Nandub v1.0rc2\nWriting library                : Nandub build 1853/release\n\nVideo\nID                             : 0\nFormat                         : MPEG-4 Visual\nFormat profile                 : Advanced Simple@L5\nFormat settings, BVOP          : 2\nFormat settings, QPel          : Yes\nFormat settings, GMC           : No warppoints\nFormat settings, Matrix        : Default (H.263)\nMuxing mode                    : Packed bitstream\nCodec ID                       : XVID\nCodec ID/Hint                  : XviD\nDuration                       : 1h 49mn\nBit rate                       : 1 712 Kbps\nWidth                          : 720 pixels\nHeight                         : 340 pixels\nDisplay aspect ratio           : 2.118\nFrame rate                     : 29.970 fps\nColor space                    : YUV\nChroma subsampling             : 4:2:0\nBit depth                      : 8 bits\nScan type                      : Progressive\nCompression mode               : Lossy\nBits/(Pixel*Frame)             : 0.233\nStream size                    : 1.31 GiB (86%)\nWriting library                : XviD 1.2.1 (UTC 2008-12-04)\n\nAudio\nID                             : 1\nFormat                         : AC-3\nFormat/Info                    : Audio Coding 3\nMode extension                 : CM (complete main)\nFormat settings, Endianness    : Big\nCodec ID                       : 2000\nDuration                       : 1h 49mn\nBit rate mode                  : Constant\nBit rate                       : 256 Kbps\nChannel(s)                     : 2 channels\nChannel positions              : Front: L R\nSampling rate                  : 48.0 KHz\nBit depth                      : 16 bits\nCompression mode               : Lossy\nStream size                    : 200 MiB (13%)\nAlignment                      : Split accross interleaves\nInterleave, duration           : 33 ms (1.00 video frame)\nInterleave, preload duration   : 500 ms\n\n\nScreens \n\n[img]http://img540.imageshack.us/img540/96/WWmZ75.png[/img]\n[img]http://img537.imageshack.us/img537/135/elZPFX.png[/img]\n[img]http://img661.imageshack.us/img661/7889/txsRCj.png[/img]\n[img]http://img661.imageshack.us/img661/2190/ejH0NW.png[/img]\n[img]http://img913.imageshack.us/img913/4594/Q5HFrN.png[/img]\n[img]http://img540.imageshack.us/img540/645/ZKE1o4.png[/img]\n[img]http://img540.imageshack.us/img540/4231/zFen8L.png[/img]\n[img]http://img540.imageshack.us/img540/1473/rvIRby.png[/img]\n\n\n\nPlot\n\nOn the morning of May 10, 1996, climbers (Jason Clarke, Josh Brolin) from two expeditions start their final \nascent toward the summit of Mount Everest, the highest point on Earth. With little warning, \na violent storm strikes the mountain, engulfing the adventurers in one of the fiercest blizzards ever encountered by man. \nChallenged by the harshest conditions imaginable, the teams must endure blistering winds and freezing temperatures \nin an epic battle to survive against nearly impossible odds. \n\nCast\n\nJason Clarke \t ... Rob Hall \nSam Worthington  ... Guy Cotter \nKeira Knightley  ... Jan Arnold \nJosh Brolin \t ... Beck Weathers\nJake Gyllenhaal  ... Scott Fischer \nRobin Wright \t ... Peach Weathers \n\n\n\nGreetz\n\nSugarB,iNCOMiNG,Izzy,MenaceIISociety,jiinx,SiMPLE,CherryBomb\nranbailey,ViSiON,YanKeeS,COPYxRIGHT,THC,VAiN,ACAB,DRs\nLKRG,Kingstoner,ACAB,SiMPLE,TiTAN\nUnevano,BigVik,Rapeseed,SAFC,goldadvance,KaN1vE,Pinnz,Wayne,HiGH\nSeeN,jtr,Limey,ICONiK,TED,smittyman,rkofan,mrtoke09 (ya whinging old man here ya go lol )\nMr Hive\n\n\nLOOKING FOR ANYTHING YOU WANT TO LOOK AND SOUND BETTER\n\nCOME FIND US WE DONT BITE \n&lt;a class=&quot;__cf_email__&quot; href=&quot;/cdn-cgi/l/email-protection&quot; data-cfemail=&quot;47040a7f072f32342f2a262e2b692a22&quot;&gt;[email&amp;#160;protected]&lt;/a&gt;&lt;script data-cfhash='f9e31' type=&quot;text/javascript&quot;&gt;\n/* &lt;![CDATA[ */!function(){try{var t=&quot;currentScript&quot;in document?document.currentScript:function(){for(var t=document.getElementsByTagName(&quot;script&quot;),e=t.length;e--;)if(t[e].getAttribute(&quot;data-cfhash&quot;))return t[e]}();if(t&amp;&amp;t.previousSibling){var e,r,n,i,c=t.previousSibling,a=c.getAttribute(&quot;data-cfemail&quot;);if(a){for(e=&quot;&quot;,r=parseInt(a.substr(0,2),16),n=2;a.length-n;n+=2)i=parseInt(a.substr(n,2),16)^r,e+=String.fromCharCode(i);e=document.createTextNode(e),c.parentNode.replaceChild(e,c)}t.parentNode.removeChild(t);}}catch(u){}}()/* ]]&gt; */&lt;/script&gt;[/center]","torrent":{"xt":"urn:btih:f33d8f3e21bfca5c554ce8808e717a5f1b2244d7","amp;dn":"Everest.2015.HD-TS.XVID.AC3.HQ.Hive-CM8","amp;tr":["udp%3A%2F%2Ftracker.openbittorrent.com%3A80","udp%3A%2F%2Fopen.demonii.com%3A1337","udp%3A%2F%2Ftracker.coppersurfer.tk%3A6969","udp%3A%2F%2Fexodus.desync.com%3A6969"],"infoHash":"f33d8f3e21bfca5c554ce8808e717a5f1b2244d7","infoHashBuffer":{"type":"Buffer","data":[243,61,143,62,33,191,202,92,85,76,232,128,142,113,122,95,27,34,68,215]},"announce":[],"urlList":[]}}